<?xml version="1.0" encoding="utf-8"?>
<!-- Generator: Adobe Illustrator 18.1.1, SVG Export Plug-In . SVG Version: 6.00 Build 0)  -->
<svg version="1.1" id="Layer_1" xmlns="http://www.w3.org/2000/svg" xmlns:xlink="http://www.w3.org/1999/xlink" x="0px" y="0px"
	 viewBox="0 0 512 207.8" enable-background="new 0 0 512 207.8" xml:space="preserve">
<path fill="white" d="M56.7,169.8c3.8,0,8-1,12.7-3v20.3c-2.9,1.5-6.1,2.7-9.6,3.6c-3.5,0.9-7.3,1.4-11.4,1.4
	c-9.7,0-16.7-3-21.1-9.1c-4.3-6.1-6.5-15.3-6.5-27.8V87.4H8.9V73.5l13.7-6.6L29,39.6h17.3v26.6h21.6v21.2H46.3v66.2
	c0,5.5,0.8,9.5,2.4,12.2C50.3,168.5,52.9,169.8,56.7,169.8z"/>
<path fill="white" d="M126.4,64c11.8,0,20.6,3.7,26.4,11c5.8,7.4,8.6,18.2,8.6,32.4v82.4h-18.9l-3.9-16.6H138
	c-3.5,6.4-7.6,11.1-12.2,14.2c-4.6,3.1-10.4,4.7-17.4,4.7c-6.7,0-12.1-1.8-16.3-5.3c-4.2-3.6-7.2-8.3-9.1-14.1
	c-1.9-5.8-2.8-12-2.8-18.5c0-12.6,3.6-22.2,10.7-28.9c7.1-6.7,17.2-10.3,30.3-10.9l14.8-0.7v-6.1c0-7.7-1.1-13.5-3.4-17.3
	c-2.3-3.8-6-5.7-11.2-5.7c-7,0-15.2,2.8-24.6,8.4l-7.3-19.1C100.3,67.2,112.6,64,126.4,64z M136.2,130.9l-9.3,0.7
	c-14,0.6-20.9,7.8-20.9,21.6c0,12.3,4.2,18.4,12.5,18.4c5.3,0,9.6-2.6,12.9-7.7c3.3-5.2,4.9-12.2,4.9-21.2V130.9z"/>
<path fill="white" d="M250.2,154.8c0,12.1-3.3,21.4-10,27.8c-6.7,6.4-15.9,9.6-27.8,9.6s-22.1-2.4-30.7-7.1v-25
	c3.6,2.7,8,5,13.1,6.9c5.1,1.9,10.3,2.8,15.6,2.8c9.7,0,14.6-4.6,14.6-13.7c0-3.8-1.3-7.1-3.8-10c-2.5-2.9-7.5-6.4-14.9-10.5
	c-7.7-4.2-13.8-9.3-18.2-15.1c-4.4-5.8-6.6-13.4-6.6-22.6c0-10.3,3.3-18.5,10-24.7C198.2,67,207,64,218.1,64c5.6,0,11,0.8,16.2,2.4
	c5.2,1.6,10.2,3.8,15,6.7l-7.7,19.8c-3.3-2.4-6.9-4.4-10.7-5.8c-3.8-1.4-7.7-2.2-11.6-2.2c-4.3,0-7.5,1.1-9.8,3.2
	c-2.3,2.1-3.4,5.1-3.4,8.9c0,2.6,0.5,4.8,1.5,6.7c1,1.9,2.8,3.8,5.6,5.8c2.7,2,6.6,4.5,11.6,7.5c7.6,4.6,13.7,9.6,18.4,15.2
	C247.8,137.9,250.2,145.4,250.2,154.8z"/>
<path fill="white" d="M295.7,71.7l-0.5,52.4l0.1-3.5l76.1-103.7H397L324.4,114l33.7,75.9h-27.5l-23-54.9l-11.8,12.7v42.1h-25.5
	V71.7H295.7z"/>
<path fill="white" d="M397,189.8h-25.5v-173H397V189.8z"/>
<path fill="white" d="M462.1,64.2c8.9,0,16.5,2.4,22.5,7.1c6.1,4.7,10.7,11.2,13.8,19.5c3.1,8.3,4.7,17.9,4.7,28.8v15.2h-58.7
	c0.1,24.3,8.4,36.4,24.8,36.4c5,0,9.8-0.7,14.3-2c4.5-1.4,9.3-3.6,14.3-6.8v21.6c-9.6,5.5-20.2,8.2-31.9,8.2c-11.1,0-20-2.7-26.9-8
	c-6.8-5.3-11.8-12.7-15-22.2c-3.2-9.5-4.8-20.5-4.8-33.1c0-20.8,3.6-36.8,10.8-47.9C437.3,69.8,448,64.2,462.1,64.2z M462.5,84.2
	c-5.5,0-9.7,2.5-12.9,7.5c-3.1,5-4.8,13.1-5.1,24.1h34.8c0-9.3-1.4-16.8-4.2-22.8C472.4,87.2,468.1,84.2,462.5,84.2z"/>
<polygon fill="white" points="270.2,71.7 295.7,71.7 295.4,120.6 371.5,16.9 397,16.9 295.7,152.3 270.2,152.3 "/>
</svg>
