<?xml version="1.0" encoding="utf-8"?>
<!-- Generator: Adobe Illustrator 18.1.1, SVG Export Plug-In . SVG Version: 6.00 Build 0)  -->
<svg version="1.1" xmlns="http://www.w3.org/2000/svg" xmlns:xlink="http://www.w3.org/1999/xlink" x="0px" y="0px"
	 viewBox="0 0 500 205" enable-background="new 0 0 500 205" xml:space="preserve">
<g id="backup" display="none">
	<path display="inline" fill="#282828" d="M289.7,68.7l-0.5,52.4l0.1-3.5l76.1-103.7H391L318.4,111l33.7,75.9h-27.5l-23-54.9
		l-11.8,12.7v42.1h-25.5V68.7H289.7z"/>
	<path display="inline" fill="#282828" d="M391,186.8h-25.5v-173H391V186.8z"/>
	<polygon display="inline" fill="#2C83C5" points="264.2,68.7 289.7,68.7 289.4,117.6 365.5,13.9 391,13.9 289.7,149.3 264.2,149.3 
			"/>
</g>
<g id="letras_fixas" display="none">
	<path display="inline" fill="#282828" d="M456.1,61.2c8.9,0,16.5,2.4,22.5,7.1c6.1,4.7,10.7,11.2,13.8,19.5
		c3.1,8.3,4.7,17.9,4.7,28.8v15.2h-58.7c0.1,24.3,8.4,36.4,24.8,36.4c5,0,9.8-0.7,14.3-2c4.5-1.4,9.3-3.6,14.3-6.8v21.6
		c-9.6,5.5-20.2,8.2-31.9,8.2c-11.1,0-20-2.7-26.9-8c-6.8-5.3-11.8-12.7-15-22.2c-3.2-9.5-4.8-20.5-4.8-33.1
		c0-20.8,3.6-36.8,10.8-47.9C431.3,66.8,442,61.2,456.1,61.2z M456.5,81.2c-5.5,0-9.7,2.5-12.9,7.5c-3.1,5-4.8,13.1-5.1,24.1h34.8
		c0-9.3-1.4-16.8-4.2-22.8C466.4,84.2,462.1,81.2,456.5,81.2z"/>
	<path display="inline" fill="#282828" d="M244.2,151.8c0,12.1-3.3,21.4-10,27.8c-6.7,6.4-15.9,9.6-27.8,9.6s-22.1-2.4-30.7-7.1v-25
		c3.6,2.7,8,5,13.1,6.9c5.1,1.9,10.3,2.8,15.6,2.8c9.7,0,14.6-4.6,14.6-13.7c0-3.8-1.3-7.1-3.8-10c-2.5-2.9-7.5-6.4-14.9-10.5
		c-7.7-4.2-13.8-9.3-18.2-15.1c-4.4-5.8-6.6-13.4-6.6-22.6c0-10.3,3.3-18.5,10-24.7C192.2,64,201,61,212.1,61c5.6,0,11,0.8,16.2,2.4
		c5.2,1.6,10.2,3.8,15,6.7l-7.7,19.8c-3.3-2.4-6.9-4.4-10.7-5.8c-3.8-1.4-7.7-2.2-11.6-2.2c-4.3,0-7.5,1.1-9.8,3.2
		c-2.3,2.1-3.4,5.1-3.4,8.9c0,2.6,0.5,4.8,1.5,6.7c1,1.9,2.8,3.8,5.6,5.8c2.7,2,6.6,4.5,11.6,7.5c7.6,4.6,13.7,9.6,18.4,15.2
		C241.8,134.9,244.2,142.4,244.2,151.8z"/>
	<path display="inline" fill="#282828" d="M120.4,61c11.8,0,20.6,3.7,26.4,11c5.8,7.4,8.6,18.2,8.6,32.4v82.4h-18.9l-3.9-16.6H132
		c-3.5,6.4-7.6,11.1-12.2,14.2c-4.6,3.1-10.4,4.7-17.4,4.7c-6.7,0-12.1-1.8-16.3-5.3c-4.2-3.6-7.2-8.3-9.1-14.1
		c-1.9-5.8-2.8-12-2.8-18.5c0-12.6,3.6-22.2,10.7-28.9c7.1-6.7,17.2-10.3,30.3-10.9l14.8-0.7v-6.1c0-7.7-1.1-13.5-3.4-17.3
		c-2.3-3.8-6-5.7-11.2-5.7c-7,0-15.2,2.8-24.6,8.4l-7.3-19.1C94.3,64.2,106.6,61,120.4,61z M130.2,127.9l-9.3,0.7
		c-14,0.6-20.9,7.8-20.9,21.6c0,12.3,4.2,18.4,12.5,18.4c5.3,0,9.6-2.6,12.9-7.7c3.3-5.2,4.9-12.2,4.9-21.2V127.9z"/>
	<path display="inline" fill="#282828" d="M50.7,166.8c3.8,0,8-1,12.7-3v20.3c-2.9,1.5-6.1,2.7-9.6,3.6c-3.5,0.9-7.3,1.4-11.4,1.4
		c-9.7,0-16.7-3-21.1-9.1c-4.3-6.1-6.5-15.3-6.5-27.8V84.4H2.9V70.5l13.7-6.6L23,36.6h17.3v26.6h21.6v21.2H40.3v66.2
		c0,5.5,0.8,9.5,2.4,12.2C44.3,165.5,46.9,166.8,50.7,166.8z"/>
</g>
<g id="versao_nova" display="none">
	<path fill="#282828" d="M391,186.8h-25.5v-173H391V186.8z"/>
	<path fill="#282828" d="M264.2,151.3V68.7h25.5l-0.5,52.4l0.1-3.5l76.1-103.7H391L318.4,111l33.7,75.9h-27.5l-23-54.9l-11.8,12.7
		v42.1h-25.5V151.3"/>
	<polyline fill="#2C83C5" points="264.2,149.3 264.2,68.7 289.7,68.7 289.4,117.6 365.5,13.9 391,13.9 289.7,149.3 	"/>
	<rect x="264.2" y="151.3" display="inline" fill="#282828" width="25.5" height="35.5"/>
	<polygon display="inline" fill="#282828" points="324.5,186.8 352.1,186.8 319.5,113.4 302.9,135.2 	"/>
	<polygon display="inline" fill="#282828" points="365.5,51.7 391,17.3 391,186.8 365.5,186.8 	"/>
</g>
<g id="Layer_4" display="none">
	<polyline display="inline" fill="#282828" points="264.2,149.3 264.2,68.7 289.7,68.7 289.4,117.6 365.5,13.9 391,13.9 
		289.7,149.3 	"/>
</g>
<g id="letras_fixas_copy">
	<rect x="-5.7" y="-274" display="none" fill="#2C83C5" width="536.7" height="700"/>
	<path fill="#FFFFFF" d="M456.1,61.2c8.9,0,16.5,2.4,22.5,7.1c6.1,4.7,10.7,11.2,13.8,19.5c3.1,8.3,4.7,17.9,4.7,28.8v15.2h-58.7
		c0.1,24.3,8.4,36.4,24.8,36.4c5,0,9.8-0.7,14.3-2c4.5-1.4,9.3-3.6,14.3-6.8v21.6c-9.6,5.5-20.2,8.2-31.9,8.2c-11.1,0-20-2.7-26.9-8
		c-6.8-5.3-11.8-12.7-15-22.2c-3.2-9.5-4.8-20.5-4.8-33.1c0-20.8,3.6-36.8,10.8-47.9C431.3,66.8,442,61.2,456.1,61.2z M456.5,81.2
		c-5.5,0-9.7,2.5-12.9,7.5c-3.1,5-4.8,13.1-5.1,24.1h34.8c0-9.3-1.4-16.8-4.2-22.8C466.4,84.2,462.1,81.2,456.5,81.2z"/>
	<path fill="#FFFFFF" d="M244.2,151.8c0,12.1-3.3,21.4-10,27.8c-6.7,6.4-15.9,9.6-27.8,9.6s-22.1-2.4-30.7-7.1v-25
		c3.6,2.7,8,5,13.1,6.9c5.1,1.9,10.3,2.8,15.6,2.8c9.7,0,14.6-4.6,14.6-13.7c0-3.8-1.3-7.1-3.8-10c-2.5-2.9-7.5-6.4-14.9-10.5
		c-7.7-4.2-13.8-9.3-18.2-15.1c-4.4-5.8-6.6-13.4-6.6-22.6c0-10.3,3.3-18.5,10-24.7C192.2,64,201,61,212.1,61c5.6,0,11,0.8,16.2,2.4
		c5.2,1.6,10.2,3.8,15,6.7l-7.7,19.8c-3.3-2.4-6.9-4.4-10.7-5.8c-3.8-1.4-7.7-2.2-11.6-2.2c-4.3,0-7.5,1.1-9.8,3.2
		c-2.3,2.1-3.4,5.1-3.4,8.9c0,2.6,0.5,4.8,1.5,6.7c1,1.9,2.8,3.8,5.6,5.8c2.7,2,6.6,4.5,11.6,7.5c7.6,4.6,13.7,9.6,18.4,15.2
		C241.8,134.9,244.2,142.4,244.2,151.8z"/>
	<path fill="#FFFFFF" d="M120.4,61c11.8,0,20.6,3.7,26.4,11c5.8,7.4,8.6,18.2,8.6,32.4v82.4h-18.9l-3.9-16.6H132
		c-3.5,6.4-7.6,11.1-12.2,14.2c-4.6,3.1-10.4,4.7-17.4,4.7c-6.7,0-12.1-1.8-16.3-5.3c-4.2-3.6-7.2-8.3-9.1-14.1
		c-1.9-5.8-2.8-12-2.8-18.5c0-12.6,3.6-22.2,10.7-28.9c7.1-6.7,17.2-10.3,30.3-10.9l14.8-0.7v-6.1c0-7.7-1.1-13.5-3.4-17.3
		c-2.3-3.8-6-5.7-11.2-5.7c-7,0-15.2,2.8-24.6,8.4l-7.3-19.1C94.3,64.2,106.6,61,120.4,61z M130.2,127.9l-9.3,0.7
		c-14,0.6-20.9,7.8-20.9,21.6c0,12.3,4.2,18.4,12.5,18.4c5.3,0,9.6-2.6,12.9-7.7c3.3-5.2,4.9-12.2,4.9-21.2V127.9z"/>
	<path fill="#FFFFFF" d="M50.7,166.8c3.8,0,8-1,12.7-3v20.3c-2.9,1.5-6.1,2.7-9.6,3.6c-3.5,0.9-7.3,1.4-11.4,1.4
		c-9.7,0-16.7-3-21.1-9.1c-4.3-6.1-6.5-15.3-6.5-27.8V84.4H2.9V70.5l13.7-6.6L23,36.6h17.3v26.6h21.6v21.2H40.3v66.2
		c0,5.5,0.8,9.5,2.4,12.2C44.3,165.5,46.9,166.8,50.7,166.8z"/>
</g>
<g id="versao_nova_copy">
	<path display="none" fill="#282828" d="M391,186.8h-25.5v-173H391V186.8z"/>
	<path display="none" fill="#282828" d="M264.2,151.3V68.7h25.5l-0.5,52.4l0.1-3.5l76.1-103.7H391L318.4,111l33.7,75.9h-27.5
		l-23-54.9l-11.8,12.7v42.1h-25.5V151.3"/>
	<polyline fill="#FFFFFF" points="264.2,149.3 264.2,68.7 289.7,68.7 289.4,117.6 365.5,13.9 391,13.9 289.7,149.3 	"/>
	<rect x="264.2" y="161.6" fill="#FFFFFF" width="25.5" height="25.2"/>
	<polygon fill="#FFFFFF" points="324.5,186.8 352.1,186.8 324.2,124.2 307.6,146.5 	"/>
	<polygon fill="#FFFFFF" points="365.5,68.6 391,34.2 391,186.8 365.5,186.8 	"/>
	
		<rect x="223.6" y="149.3" transform="matrix(-1 -1.248987e-003 1.248987e-003 -1 628.1954 311.388)" display="none" fill="#F15D5E" width="181.2" height="12.4"/>
</g>
<g id="Layer_4_copy" display="none">
	<polyline display="inline" fill="#282828" points="264.2,149.3 264.2,68.7 289.7,68.7 289.4,117.6 365.5,13.9 391,13.9 
		289.7,149.3 	"/>
</g>
</svg>
