<?xml version="1.0" encoding="utf-8"?>
<!-- Generator: Adobe Illustrator 18.1.1, SVG Export Plug-In . SVG Version: 6.00 Build 0)  -->
<svg version="1.1" xmlns="http://www.w3.org/2000/svg" xmlns:xlink="http://www.w3.org/1999/xlink" x="0px" y="0px"
	 viewBox="0 0 1122 460" enable-background="new 0 0 1122 460" xml:space="preserve">
<g id="backup" display="none">
	<path display="inline" fill="#282828" d="M289.7,68.7l-0.5,52.4l0.1-3.5l76.1-103.7H391L318.4,111l33.7,75.9h-27.5l-23-54.9
		l-11.8,12.7v42.1h-25.5V68.7H289.7z"/>
	<path display="inline" fill="#282828" d="M391,186.8h-25.5v-173H391V186.8z"/>
	<polygon display="inline" fill="#2C83C5" points="264.2,68.7 289.7,68.7 289.4,117.6 365.5,13.9 391,13.9 289.7,149.3 264.2,149.3 
			"/>
</g>
<g id="letras_fixas" display="none">
	<path display="inline" fill="#282828" d="M456.1,61.2c8.9,0,16.5,2.4,22.5,7.1c6.1,4.7,10.7,11.2,13.8,19.5
		c3.1,8.3,4.7,17.9,4.7,28.8v15.2h-58.7c0.1,24.3,8.4,36.4,24.8,36.4c5,0,9.8-0.7,14.3-2c4.5-1.4,9.3-3.6,14.3-6.8v21.6
		c-9.6,5.5-20.2,8.2-31.9,8.2c-11.1,0-20-2.7-26.9-8c-6.8-5.3-11.8-12.7-15-22.2c-3.2-9.5-4.8-20.5-4.8-33.1
		c0-20.8,3.6-36.8,10.8-47.9C431.3,66.8,442,61.2,456.1,61.2z M456.5,81.2c-5.5,0-9.7,2.5-12.9,7.5c-3.1,5-4.8,13.1-5.1,24.1h34.8
		c0-9.3-1.4-16.8-4.2-22.8C466.4,84.2,462.1,81.2,456.5,81.2z"/>
	<path display="inline" fill="#282828" d="M244.2,151.8c0,12.1-3.3,21.4-10,27.8c-6.7,6.4-15.9,9.6-27.8,9.6s-22.1-2.4-30.7-7.1v-25
		c3.6,2.7,8,5,13.1,6.9c5.1,1.9,10.3,2.8,15.6,2.8c9.7,0,14.6-4.6,14.6-13.7c0-3.8-1.3-7.1-3.8-10c-2.5-2.9-7.5-6.4-14.9-10.5
		c-7.7-4.2-13.8-9.3-18.2-15.1c-4.4-5.8-6.6-13.4-6.6-22.6c0-10.3,3.3-18.5,10-24.7C192.2,64,201,61,212.1,61c5.6,0,11,0.8,16.2,2.4
		c5.2,1.6,10.2,3.8,15,6.7l-7.7,19.8c-3.3-2.4-6.9-4.4-10.7-5.8c-3.8-1.4-7.7-2.2-11.6-2.2c-4.3,0-7.5,1.1-9.8,3.2
		c-2.3,2.1-3.4,5.1-3.4,8.9c0,2.6,0.5,4.8,1.5,6.7c1,1.9,2.8,3.8,5.6,5.8c2.7,2,6.6,4.5,11.6,7.5c7.6,4.6,13.7,9.6,18.4,15.2
		C241.8,134.9,244.2,142.4,244.2,151.8z"/>
	<path display="inline" fill="#282828" d="M120.4,61c11.8,0,20.6,3.7,26.4,11c5.8,7.4,8.6,18.2,8.6,32.4v82.4h-18.9l-3.9-16.6H132
		c-3.5,6.4-7.6,11.1-12.2,14.2c-4.6,3.1-10.4,4.7-17.4,4.7c-6.7,0-12.1-1.8-16.3-5.3c-4.2-3.6-7.2-8.3-9.1-14.1
		c-1.9-5.8-2.8-12-2.8-18.5c0-12.6,3.6-22.2,10.7-28.9c7.1-6.7,17.2-10.3,30.3-10.9l14.8-0.7v-6.1c0-7.7-1.1-13.5-3.4-17.3
		c-2.3-3.8-6-5.7-11.2-5.7c-7,0-15.2,2.8-24.6,8.4l-7.3-19.1C94.3,64.2,106.6,61,120.4,61z M130.2,127.9l-9.3,0.7
		c-14,0.6-20.9,7.8-20.9,21.6c0,12.3,4.2,18.4,12.5,18.4c5.3,0,9.6-2.6,12.9-7.7c3.3-5.2,4.9-12.2,4.9-21.2V127.9z"/>
	<path display="inline" fill="#282828" d="M50.7,166.8c3.8,0,8-1,12.7-3v20.3c-2.9,1.5-6.1,2.7-9.6,3.6c-3.5,0.9-7.3,1.4-11.4,1.4
		c-9.7,0-16.7-3-21.1-9.1c-4.3-6.1-6.5-15.3-6.5-27.8V84.4H2.9V70.5l13.7-6.6L23,36.6h17.3v26.6h21.6v21.2H40.3v66.2
		c0,5.5,0.8,9.5,2.4,12.2C44.3,165.5,46.9,166.8,50.7,166.8z"/>
</g>
<g id="versao_nova" display="none">
	<path fill="#282828" d="M391,186.8h-25.5v-173H391V186.8z"/>
	<path fill="#282828" d="M264.2,151.3V68.7h25.5l-0.5,52.4l0.1-3.5l76.1-103.7H391L318.4,111l33.7,75.9h-27.5l-23-54.9l-11.8,12.7
		v42.1h-25.5V151.3"/>
	<polyline fill="#2C83C5" points="264.2,149.3 264.2,68.7 289.7,68.7 289.4,117.6 365.5,13.9 391,13.9 289.7,149.3 	"/>
	<rect x="264.2" y="151.3" display="inline" fill="#282828" width="25.5" height="35.5"/>
	<polygon display="inline" fill="#282828" points="324.5,186.8 352.1,186.8 319.5,113.4 302.9,135.2 	"/>
	<polygon display="inline" fill="#282828" points="365.5,51.7 391,17.3 391,186.8 365.5,186.8 	"/>
</g>
<g id="Layer_4" display="none">
	<polyline display="inline" fill="#282828" points="264.2,149.3 264.2,68.7 289.7,68.7 289.4,117.6 365.5,13.9 391,13.9 
		289.7,149.3 	"/>
</g>
<g id="letras_fixas_copy">
	<rect x="-5.7" y="-274" display="none" fill="#2C83C5" width="536.7" height="700"/>
	<path fill="#282828" d="M1025.8,120.7c20.2,0,37.2,5.3,50.9,15.9c13.7,10.6,24.1,25.3,31.1,43.9c7,18.7,10.5,40.3,10.5,65V280
		H985.8c0.3,54.8,19,82.2,56,82.2c11.3,0,22.1-1.5,32.4-4.6c10.3-3.1,21.1-8.2,32.4-15.4V391c-21.6,12.3-45.6,18.5-71.9,18.5
		c-25,0-45.2-6-60.6-18c-15.4-12-26.7-28.7-33.9-50.1c-7.2-21.4-10.8-46.3-10.8-74.7c0-46.9,8.1-83,24.4-108.1
		C969.9,133.3,994,120.7,1025.8,120.7z M1026.8,165.9c-12.3,0-22,5.7-29,17c-7,11.3-10.9,29.5-11.6,54.5h78.6
		c0-20.9-3.2-38-9.5-51.4C1049,172.6,1039.5,165.9,1026.8,165.9z"/>
	<path fill="#282828" d="M547.5,325.2c0,27.4-7.5,48.3-22.6,62.7c-15.1,14.4-36,21.6-62.7,21.6s-49.8-5.3-69.4-15.9V337
		c8.2,6.2,18.1,11.4,29.5,15.7c11.5,4.3,23.2,6.4,35.2,6.4c21.9,0,32.9-10.3,32.9-30.8c0-8.6-2.8-16.1-8.5-22.6
		c-5.7-6.5-16.9-14.4-33.6-23.6c-17.5-9.6-31.2-21-41.1-34.2c-9.9-13.2-14.9-30.2-14.9-51.1c0-23.3,7.5-41.9,22.6-55.7
		c15.1-13.9,35.1-20.8,60.1-20.8c12.7,0,24.8,1.8,36.5,5.4c11.6,3.6,22.9,8.7,33.9,15.2L528,185.5c-7.5-5.5-15.6-9.8-24.1-13.1
		c-8.6-3.2-17.3-4.9-26.2-4.9c-9.6,0-17,2.4-22.1,7.2c-5.1,4.8-7.7,11.5-7.7,20c0,5.8,1.1,10.9,3.3,15.2c2.2,4.3,6.4,8.7,12.6,13.1
		c6.2,4.5,14.9,10.1,26.2,17c17.1,10.3,31,21.8,41.6,34.4C542.2,287,547.5,304,547.5,325.2z"/>
	<path fill="#282828" d="M268,120.2c26.7,0,46.6,8.3,59.6,24.9c13,16.6,19.5,41,19.5,73.2v186h-42.6l-8.7-37.5h-1.5
		c-7.9,14.4-17,25.1-27.5,32.1c-10.5,7-23.6,10.5-39.3,10.5c-15.1,0-27.3-4-36.7-12.1c-9.4-8-16.3-18.7-20.6-31.9
		c-4.3-13.2-6.4-27.1-6.4-41.9c0-28.4,8-50.2,24.1-65.2c16.1-15.1,38.9-23.3,68.3-24.7l33.4-1.5v-13.9c0-17.5-2.6-30.5-7.7-39
		c-5.1-8.6-13.5-12.8-25.2-12.8c-15.8,0-34.3,6.3-55.5,19l-16.4-43.2C209.1,127.6,236.9,120.2,268,120.2z M290.1,271.3l-21.1,1.5
		c-31.5,1.4-47.3,17.6-47.3,48.8c0,27.7,9.4,41.6,28.3,41.6c12,0,21.7-5.8,29-17.5c7.4-11.6,11-27.6,11-47.8V271.3z"/>
	<path fill="#282828" d="M110.8,359.1c8.6,0,18.2-2.2,28.8-6.7v45.7c-6.5,3.4-13.7,6.2-21.6,8.2c-7.9,2.1-16.5,3.1-25.7,3.1
		c-21.9,0-37.8-6.9-47.5-20.6c-9.8-13.7-14.6-34.6-14.6-62.7V173.1H2.9v-31.3l30.8-14.9l14.4-61.7h39v60.1H136v47.8H87.2v149.5
		c0,12.3,1.8,21.5,5.4,27.5C96.2,356.1,102.3,359.1,110.8,359.1z"/>
</g>
<g id="versao_nova_copy">
	<path display="none" fill="#282828" d="M391,186.8h-25.5v-173H391V186.8z"/>
	<path display="none" fill="#282828" d="M264.2,151.3V68.7h25.5l-0.5,52.4l0.1-3.5l76.1-103.7H391L318.4,111l33.7,75.9h-27.5
		l-23-54.9l-11.8,12.7v42.1h-25.5V151.3"/>
	<polyline fill="#FFFFFF" points="592.7,319.6 592.7,137.7 650.3,137.7 649.5,248 821.3,13.9 878.9,13.9 650.3,319.6 	"/>
	<rect x="592.7" y="347.5" fill="#282828" width="57.5" height="56.9"/>
	<polygon fill="#282828" points="728.9,404.3 791,404.3 728.2,262.9 690.8,313.3 	"/>
	<polygon fill="#282828" points="821.3,137.4 878.9,59.8 878.9,404.3 821.3,404.3 	"/>
	
		<rect x="223.6" y="149.3" transform="matrix(-1 -1.248987e-003 1.248987e-003 -1 628.1954 311.388)" display="none" fill="#F15D5E" width="181.2" height="12.4"/>
</g>
<g id="Layer_4_copy">
	<polyline fill="#282828" points="592.7,319.6 592.7,137.7 650.3,137.7 649.5,248 821.3,13.9 878.9,13.9 650.3,319.6 	"/>
</g>
</svg>
